<svg width="78" height="78" viewBox="0 0 78 78" fill="none" xmlns="http://www.w3.org/2000/svg">
<path d="M68.8088 38.256H68.787C68.4914 38.256 68.2066 38.1435 67.9907 37.944L55.7393 26.585C55.264 26.1442 55.2368 25.4023 55.6758 24.9289C56.1166 24.4536 56.8585 24.4264 57.3319 24.8654L69.4582 36.1064C69.7738 36.3169 69.9806 36.676 69.9806 37.0823C69.9806 37.7317 69.4564 38.256 68.8088 38.256ZM45.2564 16.4432C44.9716 16.4432 44.685 16.3398 44.4601 16.1312C40.9537 12.8824 38.4904 10.5968 38.4904 10.5968C38.1729 10.3029 38.0441 9.85853 38.153 9.43951C38.2618 9.02048 38.5938 8.6976 39.0146 8.59602L39.2341 8.54341C39.8581 8.39467 40.4857 8.7756 40.6435 9.39597C41.5614 10.2467 43.5404 12.0824 46.0546 14.4116C46.5298 14.8523 46.557 15.5942 46.1181 16.0677C45.8859 16.3162 45.5721 16.4432 45.2564 16.4432Z" fill="white"/>
<path d="M62.9297 69.4887C62.3238 69.4887 61.8105 69.0225 61.7615 68.4094C61.7416 68.1554 61.8032 67.9142 61.9248 67.7128V37.0751C61.9248 36.4276 62.449 35.9033 63.0966 35.9033C63.7442 35.9033 64.2684 36.4276 64.2684 37.0751V68.3042C64.2684 68.9155 63.7986 69.4234 63.1891 69.4723L63.0222 69.485C62.9914 69.4869 62.9605 69.4887 62.9297 69.4887Z" fill="white"/>
<path d="M57.6602 25.4294C57.0144 25.4294 56.4884 24.907 56.4884 24.2594L56.4666 13.9253C55.9714 13.7802 55.6159 13.3195 55.6249 12.7789C55.6376 12.1313 56.1764 11.6107 56.8185 11.6289L57.6584 11.6434C58.2969 11.6543 58.8084 12.1749 58.8084 12.8134L58.832 24.254C58.8338 24.9016 58.3096 25.4276 57.662 25.4294C57.662 25.4294 57.662 25.4294 57.6602 25.4294Z" fill="white"/>
<path d="M57.6057 11.2466C58.3914 11.2466 59.0276 11.8828 59.0276 12.6685V26.1841C59.0276 26.9702 58.3889 27.606 57.6038 27.606C56.8182 27.6058 56.1819 26.9696 56.1819 26.1841V14.0903H50.4768V18.2104C50.4766 18.9959 49.8404 19.6323 49.0549 19.6323C48.2694 19.6323 47.6333 18.9959 47.6331 18.2104V12.6685C47.6331 11.8828 48.2693 11.2466 49.0549 11.2466H57.6057Z" fill="white" stroke="white" stroke-width="0.5"/>
<path d="M46.7004 41.8174C47.4861 41.8174 48.1223 42.4536 48.1223 43.2393V68.3145C48.12 69.0972 47.4844 69.7354 46.6985 69.7354C45.9129 69.7353 45.2766 69.0991 45.2766 68.3135V44.6611H32.9504V68.3115C32.9504 69.0972 32.3142 69.7334 31.5286 69.7334C30.7429 69.7334 30.1067 69.0972 30.1067 68.3115V43.2393L30.1145 43.0938C30.1873 42.3765 30.792 41.8174 31.5286 41.8174H46.7004Z" fill="white" stroke="white" stroke-width="0.5"/>
<path d="M38.2585 8.59766C38.8022 8.1883 39.5708 8.21963 40.0789 8.69238L69.5789 36.041C70.1553 36.5756 70.1889 37.4761 69.656 38.0508C69.1213 38.6272 68.2234 38.6599 67.6472 38.1279L67.6462 38.127L39.1062 11.667L10.1511 38.1338C9.8785 38.3822 9.53416 38.5059 9.19116 38.5059C8.8548 38.5058 8.51807 38.3862 8.25171 38.1514L8.14136 38.0439C7.61062 37.4645 7.65303 36.564 8.2312 36.0342H8.23218L38.1531 8.68555L38.2585 8.59766Z" fill="white" stroke="white" stroke-width="0.5"/>
<path d="M14.8074 31.2798C15.593 31.2798 16.2292 31.916 16.2292 32.7017V66.8892H61.6833V33.7554C61.6834 32.9699 62.3198 32.3337 63.1052 32.3335C63.8908 32.3335 64.527 32.9698 64.5271 33.7554V68.311L64.5203 68.4565C64.4491 69.174 63.8439 69.7349 63.1072 69.7349H14.8074C14.0217 69.7349 13.3855 69.0986 13.3855 68.313V32.7017C13.3855 31.916 14.0217 31.2798 14.8074 31.2798Z" fill="white" stroke="white" stroke-width="0.5"/>
</svg>
