<svg width="78" height="78" viewBox="0 0 78 78" fill="none" xmlns="http://www.w3.org/2000/svg">
<path d="M68.809 38.256H68.7873C68.4916 38.256 68.2068 38.1435 67.991 37.944L55.7395 26.585C55.2643 26.1442 55.237 25.4023 55.676 24.9289C56.1168 24.4536 56.8587 24.4264 57.3322 24.8654L69.4584 36.1064C69.7741 36.3169 69.9809 36.676 69.9809 37.0823C69.9809 37.7317 69.4566 38.256 68.809 38.256ZM45.2567 16.4432C44.9719 16.4432 44.6853 16.3398 44.4603 16.1312C40.954 12.8824 38.4906 10.5968 38.4906 10.5968C38.1732 10.3029 38.0444 9.85853 38.1532 9.43951C38.2621 9.02048 38.594 8.6976 39.0149 8.59602L39.2343 8.54341C39.8583 8.39467 40.486 8.7756 40.6438 9.39597C41.5616 10.2467 43.5407 12.0824 46.0548 14.4116C46.5301 14.8523 46.5573 15.5942 46.1183 16.0677C45.8861 16.3162 45.5723 16.4432 45.2567 16.4432Z" fill="white"/>
<path d="M62.9297 69.4887C62.3238 69.4887 61.8105 69.0225 61.7615 68.4094C61.7416 68.1554 61.8032 67.9142 61.9248 67.7128V37.0751C61.9248 36.4276 62.449 35.9033 63.0966 35.9033C63.7442 35.9033 64.2684 36.4276 64.2684 37.0751V68.3042C64.2684 68.9155 63.7986 69.4234 63.1891 69.4723L63.0222 69.485C62.9914 69.4869 62.9605 69.4887 62.9297 69.4887Z" fill="white"/>
<path d="M57.6604 25.4294C57.0147 25.4294 56.4886 24.907 56.4886 24.2594L56.4668 13.9253C55.9716 13.7802 55.6161 13.3195 55.6252 12.7789C55.6379 12.1313 56.1766 11.6107 56.8188 11.6289L57.6586 11.6434C58.2971 11.6543 58.8087 12.1749 58.8087 12.8134L58.8322 24.254C58.8341 24.9016 58.3098 25.4276 57.6622 25.4294C57.6622 25.4294 57.6622 25.4294 57.6604 25.4294Z" fill="white"/>
<path d="M57.6055 11.2466C58.3911 11.2466 59.0273 11.8828 59.0273 12.6685V26.1841C59.0273 26.9702 58.3887 27.606 57.6035 27.606C56.818 27.6058 56.1816 26.9696 56.1816 26.1841V14.0903H50.4766V18.2104C50.4763 18.9959 49.8402 19.6323 49.0547 19.6323C48.2692 19.6323 47.633 18.9959 47.6328 18.2104V12.6685C47.6328 11.8828 48.269 11.2466 49.0547 11.2466H57.6055Z" fill="white" stroke="white" stroke-width="0.5"/>
<path d="M38.2588 8.59766C38.8024 8.1883 39.571 8.21963 40.0791 8.69238L69.5791 36.041C70.1555 36.5756 70.1891 37.4761 69.6562 38.0508C69.1215 38.6272 68.2237 38.6599 67.6475 38.1279L67.6465 38.127L39.1064 11.667L10.1514 38.1338C9.87874 38.3822 9.53441 38.5059 9.19141 38.5059C8.85504 38.5058 8.51831 38.3862 8.25195 38.1514L8.1416 38.0439C7.61086 37.4645 7.65328 36.564 8.23145 36.0342H8.23242L38.1533 8.68555L38.2588 8.59766Z" fill="white" stroke="white" stroke-width="0.5"/>
<path d="M14.8076 31.2798C15.5932 31.2798 16.2295 31.916 16.2295 32.7017V66.8892H61.6836V33.7554C61.6837 32.9699 62.3201 32.3337 63.1055 32.3335C63.8911 32.3335 64.5273 32.9698 64.5273 33.7554V68.311L64.5205 68.4565C64.4493 69.174 63.8442 69.7349 63.1074 69.7349H14.8076C14.022 69.7349 13.3857 69.0986 13.3857 68.313V32.7017C13.3857 31.916 14.022 31.2798 14.8076 31.2798Z" fill="white" stroke="white" stroke-width="0.5"/>
<path d="M33.7106 45.5L30 48.5V36.5C30 36.3011 30.079 36.1103 30.2197 35.9697C30.3603 35.829 30.5511 35.75 30.75 35.75H42.75C42.9489 35.75 43.1397 35.829 43.2803 35.9697C43.421 36.1103 43.5 36.3011 43.5 36.5V44.75C43.5 44.9489 43.421 45.1397 43.2803 45.2803C43.1397 45.421 42.9489 45.5 42.75 45.5H33.7106Z" stroke="white" stroke-width="2" stroke-linecap="round" stroke-linejoin="round"/>
<path d="M34.5 45.5V49.25C34.5 49.4489 34.579 49.6397 34.7197 49.7803C34.8603 49.921 35.0511 50 35.25 50H44.2894L48 53V41C48 40.8011 47.921 40.6103 47.7803 40.4697C47.6397 40.329 47.4489 40.25 47.25 40.25H43.5" stroke="white" stroke-width="2" stroke-linecap="round" stroke-linejoin="round"/>
</svg>
