<svg width="78" height="78" viewBox="0 0 78 78" fill="none" xmlns="http://www.w3.org/2000/svg">
<path d="M68.809 38.2565H68.7873C68.4916 38.2565 68.2068 38.144 67.991 37.9445L55.7395 26.5855C55.2643 26.1447 55.237 25.4028 55.676 24.9293C56.1168 24.4541 56.8587 24.4269 57.3322 24.8659L69.4584 36.1069C69.7741 36.3173 69.9809 36.6765 69.9809 37.0828C69.9809 37.7322 69.4566 38.2565 68.809 38.2565ZM45.2567 16.4437C44.9719 16.4437 44.6853 16.3403 44.4603 16.1317C40.954 12.8829 38.4906 10.5973 38.4906 10.5973C38.1732 10.3034 38.0444 9.85902 38.1532 9.43999C38.2621 9.02097 38.594 8.69809 39.0149 8.59651L39.2343 8.5439C39.8583 8.39516 40.486 8.77609 40.6438 9.39646C41.5616 10.2472 43.5407 12.0829 46.0548 14.412C46.5301 14.8528 46.5573 15.5947 46.1183 16.0682C45.8861 16.3167 45.5723 16.4437 45.2567 16.4437Z" fill="white"/>
<path d="M62.9297 69.4896C62.3238 69.4896 61.8105 69.0235 61.7615 68.4103C61.7416 68.1564 61.8032 67.9151 61.9248 67.7138V37.0761C61.9248 36.4285 62.449 35.9043 63.0966 35.9043C63.7442 35.9043 64.2684 36.4285 64.2684 37.0761V68.3051C64.2684 68.9164 63.7986 69.4243 63.1891 69.4733L63.0222 69.486C62.9914 69.4878 62.9605 69.4896 62.9297 69.4896Z" fill="white"/>
<path d="M57.6604 25.4299C57.0147 25.4299 56.4886 24.9075 56.4886 24.2599L56.4668 13.9258C55.9716 13.7807 55.6161 13.32 55.6252 12.7794C55.6379 12.1318 56.1766 11.6112 56.8188 11.6294L57.6586 11.6439C58.2971 11.6548 58.8087 12.1754 58.8087 12.8139L58.8322 24.2545C58.8341 24.9021 58.3098 25.4281 57.6622 25.4299C57.6622 25.4299 57.6622 25.4299 57.6604 25.4299Z" fill="white"/>
<path d="M57.6055 11.2471C58.3911 11.2471 59.0273 11.8833 59.0273 12.6689V26.1846C59.0273 26.9707 58.3887 27.6064 57.6035 27.6064C56.818 27.6063 56.1816 26.9701 56.1816 26.1846V14.0908H50.4766V18.2109C50.4763 18.9964 49.8402 19.6328 49.0547 19.6328C48.2692 19.6328 47.633 18.9964 47.6328 18.2109V12.6689C47.6328 11.8833 48.269 11.2471 49.0547 11.2471H57.6055Z" fill="white" stroke="white" stroke-width="0.5"/>
<path d="M38.2588 8.59766C38.8024 8.1883 39.571 8.21963 40.0791 8.69238L69.5791 36.041C70.1555 36.5756 70.1891 37.4761 69.6562 38.0508C69.1215 38.6272 68.2237 38.6599 67.6475 38.1279L67.6465 38.127L39.1064 11.667L10.1514 38.1338C9.87874 38.3822 9.53441 38.5059 9.19141 38.5059C8.85504 38.5058 8.51831 38.3862 8.25195 38.1514L8.1416 38.0439C7.61086 37.4645 7.65328 36.564 8.23145 36.0342H8.23242L38.1533 8.68555L38.2588 8.59766Z" fill="white" stroke="white" stroke-width="0.5"/>
<path d="M14.8076 31.2803C15.5932 31.2803 16.2295 31.9165 16.2295 32.7021V66.8896H61.6836V33.7559C61.6837 32.9704 62.3201 32.3342 63.1055 32.334C63.8911 32.334 64.5273 32.9703 64.5273 33.7559V68.3115L64.5205 68.457C64.4493 69.1745 63.8442 69.7354 63.1074 69.7354H14.8076C14.022 69.7354 13.3857 69.0991 13.3857 68.3135V32.7021C13.3857 31.9165 14.022 31.2803 14.8076 31.2803Z" fill="white" stroke="white" stroke-width="0.5"/>
<path d="M37.875 51.75C42.2242 51.75 45.75 48.2242 45.75 43.875C45.75 39.5258 42.2242 36 37.875 36C33.5258 36 30 39.5258 30 43.875C30 48.2242 33.5258 51.75 37.875 51.75Z" stroke="white" stroke-width="2" stroke-linecap="round" stroke-linejoin="round"/>
<path d="M43.4434 49.4434L47.9996 53.9996" stroke="white" stroke-width="2" stroke-linecap="round" stroke-linejoin="round"/>
</svg>
